<svg xmlns="http://www.w3.org/2000/svg" width="234.354" height="226" viewBox="0 0 234.354 226">
  <g id="Group_186632" data-name="Group 186632" transform="translate(-611.299 -392.034)">
    <path id="Path_14372" data-name="Path 14372" d="M801.025,526.1l12.4.264L789.153,469.2c17.368,11.212,29.239,29.239,29.239,29.239l27.261-30.778-26.672,7.184,6.156-7.184h20.516l-17.368-17.367,2.418-2.418-7.475-6.156,7.475-7.475-14.07-12.751-2.6-3.79-17.623-25.669-30.778,9.673-22.706,30.6L728.7,426.33l-45.728,59.358L635.922,491.4l2.2,48.806.44,9.673L611.3,587.256l12.311,30.778h43.969l-12.751-14.95,20.665-14.07,5.523-16.4,49.878,6.287,35.333-39.581,5.523-25.476,2.673-12.329,2.418,62.216,17.35,39.317c-.967.994-3.034,1.653-7.237,1.02-5.224-.774-5.162-12.637-5.162-12.637s-16.268,13.85-3.517,26.6H832.9l-2.2-76.946Zm16.779-91.13-4.538,3.518-13.63-6.156Z" transform="translate(0)" fill="#19092b"/>
    <path id="Path_14373" data-name="Path 14373" d="M773.727,958.309l-21.545,37.813-27.847,19.053,26.088,17.881-12.751-14.949,20.665-14.07Z" transform="translate(-82.844 -415.022)" fill="#090210"/>
    <path id="Path_14374" data-name="Path 14374" d="M878.442,843.7,886.8,865.68l29.239-1.539,29.972-30.171,15.975-32.045-8.192,37.807L918.453,879.31l-51.24-6.463Z" transform="translate(-187.559 -300.409)" fill="#090210"/>
    <path id="Path_14375" data-name="Path 14375" d="M879.621,579.791l1.906,15.829,43.822-75.187Z" transform="translate(-196.653 -94.104)" fill="#412c58"/>
    <path id="Path_14376" data-name="Path 14376" d="M1104.086,458.847l7.168,3.022,15.539-33.62Z" transform="translate(-361.163 -26.542)" fill="#090210"/>
    <path id="Path_14377" data-name="Path 14377" d="M712.163,922.276l16.708-22.131L711.727,912.6Z" transform="translate(-73.603 -372.394)" fill="#090210"/>
    <path id="Path_14378" data-name="Path 14378" d="M1253.067,1061.646l-21.993-26.791,17.349,39.313,12.55-17.548Z" transform="translate(-454.233 -471.123)" fill="#090210"/>
    <path id="Path_14379" data-name="Path 14379" d="M1340.238,487.647l-14.51-5.35,11.91,1.563Z" transform="translate(-523.604 -66.154)" fill="#090210"/>
    <path id="Path_14380" data-name="Path 14380" d="M703.484,748.379l47.857,1.017-.81-6.733Z" transform="translate(-67.562 -256.976)" fill="#412c58"/>
    <path id="Path_14381" data-name="Path 14381" d="M1132.14,671.024l-23.89-24.989,5.2-22.717-14.07,22.424,30.086,37.61Z" transform="translate(-357.716 -169.507)" fill="#090210"/>
  </g>
</svg>
